<?xml version="1.0" encoding="UTF-8" standalone="no"?>
<!DOCTYPE svg PUBLIC "-//W3C//DTD SVG 1.1//EN" "http://www.w3.org/Graphics/SVG/1.1/DTD/svg11.dtd">
<svg width="100%" height="100%" viewBox="0 0 2078 1558" version="1.1" xmlns="http://www.w3.org/2000/svg" xmlns:xlink="http://www.w3.org/1999/xlink" xml:space="preserve" xmlns:serif="http://www.serif.com/" style="fill-rule:evenodd;clip-rule:evenodd;stroke-linejoin:round;stroke-miterlimit:2;">
    <g transform="matrix(1,0,0,1,-183.139183,-748.22295)">
        <g transform="matrix(0.243537,0,0,0.243537,1221.722517,1527.033608)">
            <g transform="matrix(1,0,0,1,-4264.583333,-3197.916667)">
                <g transform="matrix(4.166667,0,0,4.166667,0,0)">
                    <g transform="matrix(1,0,0,1,0.824286,0)">
                        <path d="M1218,562L1218,1021L1219,1022L1304,1022L1305,1021L1305,563L1304,562L1218,562Z" style="fill:rgb(7,27,61);"/>
                    </g>
                    <path d="M1708,562L1685,556L1654,552L1457,552L1458,1022L1542,1021L1543,848L1653,848L1685,844L1707,838L1735,826L1753,814L1770,798L1786,775L1799,741L1804,706L1802,672L1796,647L1783,619L1772,604L1758,590L1737,575L1708,562ZM1542,623L1544,621L1639,621L1640,622L1648,622L1649,623L1654,623L1655,624L1659,624L1660,625L1662,625L1663,626L1668,627L1671,629L1673,629L1674,630L1679,632L1681,634L1684,635L1686,637L1687,637L1691,641L1692,641L1704,654L1705,657L1707,659L1707,660L1711,667L1711,669L1712,670L1712,672L1713,673L1713,675L1714,676L1714,678L1715,679L1715,683L1716,684L1716,691L1717,692L1717,708L1716,709L1716,717L1715,718L1714,725L1713,726L1712,731L1710,734L1710,736L1709,737L1707,742L1705,744L1705,745L1703,747L1703,748L1699,752L1699,753L1692,760L1691,760L1688,763L1687,763L1682,767L1679,768L1677,770L1675,770L1674,771L1673,771L1672,772L1670,772L1667,774L1665,774L1664,775L1661,775L1660,776L1657,776L1656,777L1649,777L1648,778L1543,778L1542,777L1542,623Z" style="fill:rgb(7,27,61);"/>
                    <path d="M723,552L723,1022L809,1021L810,845L876,846L982,1022L1078,1022L1078,1019L963,837L964,834L985,828L1002,820L1022,806L1044,782L1060,750L1067,719L1067,678L1057,638L1040,608L1022,589L1002,575L978,564L943,555L915,552L723,552ZM809,622L810,621L904,621L905,622L913,622L914,623L919,623L920,624L923,624L924,625L927,625L928,626L933,627L938,630L940,630L944,633L947,634L949,636L950,636L952,638L953,638L957,642L958,642L967,652L967,653L969,655L970,658L972,660L972,661L974,664L975,669L977,672L977,675L978,676L978,679L979,680L979,684L980,685L980,713L979,714L979,719L978,720L978,723L977,724L976,729L974,732L974,734L973,735L971,740L969,742L969,743L967,745L967,746L964,749L964,750L955,759L954,759L951,762L950,762L945,766L944,766L937,770L935,770L932,772L930,772L929,773L927,773L926,774L923,774L922,775L919,775L918,776L912,776L911,777L810,777L809,776L809,622Z" style="fill:rgb(7,27,61);"/>
                    <path d="M260,552L260,626L392,627L392,1021L478,1022L478,628L480,626L612,626L612,552L260,552Z" style="fill:rgb(7,27,61);"/>
                </g>
                <g transform="matrix(6.033479,0,0,7.412008,-2378.3544,-1785.968944)">
                    <path d="M1255,338L1254,339L1249,339L1248,340L1245,340L1244,341L1241,341L1238,343L1233,344L1232,345L1225,348L1223,350L1222,350L1220,352L1219,352L1217,354L1216,354L1210,360L1209,360L1206,363L1206,364L1201,369L1201,370L1196,376L1196,377L1195,378L1195,379L1190,388L1190,390L1189,391L1189,393L1188,394L1188,396L1187,397L1187,399L1186,400L1186,405L1185,406L1185,430L1186,431L1186,435L1187,436L1187,439L1188,440L1188,442L1189,443L1190,448L1191,449L1191,450L1192,451L1195,458L1197,460L1198,463L1203,469L1203,470L1206,473L1206,474L1219,488L1219,489L1237,507L1237,508L1259,530L1260,530L1264,534L1266,534L1269,531L1270,531L1310,491L1310,490L1324,475L1324,474L1327,471L1327,470L1330,467L1330,466L1334,461L1334,460L1335,459L1335,458L1340,449L1340,447L1342,444L1342,441L1343,440L1343,438L1344,437L1344,432L1345,431L1345,427L1346,426L1346,410L1345,409L1345,404L1344,403L1344,399L1343,398L1343,396L1342,395L1342,393L1341,392L1341,389L1340,388L1340,387L1339,386L1339,385L1338,384L1338,383L1337,382L1334,375L1331,372L1331,371L1329,369L1329,368L1317,356L1316,356L1313,353L1312,353L1307,349L1304,348L1302,346L1301,346L1300,345L1298,345L1295,343L1293,343L1290,341L1287,341L1286,340L1283,340L1282,339L1277,339L1276,338L1255,338ZM1258,382L1272,382L1273,383L1276,383L1277,384L1279,384L1280,385L1281,385L1282,386L1283,386L1285,388L1286,388L1289,391L1290,391L1292,393L1292,394L1296,398L1296,399L1297,400L1297,401L1298,402L1298,403L1299,404L1299,406L1300,407L1300,409L1301,410L1301,425L1300,426L1300,428L1299,429L1299,431L1298,432L1298,433L1297,434L1297,435L1295,437L1295,438L1292,441L1292,442L1291,443L1290,443L1286,447L1285,447L1283,449L1282,449L1281,450L1280,450L1279,451L1277,451L1276,452L1274,452L1273,453L1257,453L1256,452L1254,452L1253,451L1251,451L1250,450L1249,450L1248,449L1247,449L1246,448L1245,448L1242,445L1241,445L1238,442L1238,441L1235,438L1235,437L1233,435L1233,434L1232,433L1232,432L1231,431L1231,429L1230,428L1230,426L1229,425L1229,411L1230,410L1230,408L1231,407L1231,405L1232,404L1232,403L1233,402L1233,401L1234,400L1234,399L1235,398L1235,397L1243,389L1244,389L1247,386L1248,386L1249,385L1250,385L1251,384L1253,384L1254,383L1257,383L1258,382Z" style="fill:rgb(255,90,10);"/>
                </g>
            </g>
        </g>
    </g>
</svg>
